<?xml version="1.0" encoding="utf-8"?>
<!-- Generator: Adobe Illustrator 16.0.0, SVG Export Plug-In . SVG Version: 6.00 Build 0)  -->
<!DOCTYPE svg PUBLIC "-//W3C//DTD SVG 1.1//EN" "http://www.w3.org/Graphics/SVG/1.1/DTD/svg11.dtd">
<svg version="1.1" id="Layer_1" xmlns="http://www.w3.org/2000/svg" xmlns:xlink="http://www.w3.org/1999/xlink" x="0px" y="0px"
	 width="1366px" height="768px" viewBox="0 0 1366 768" enable-background="new 0 0 1366 768" xml:space="preserve">
<path fill="#FFFFFF" stroke="#FC0000" stroke-width="30" stroke-miterlimit="10" d="M1006.074,80.867
	C966.318,37.748,911.768,14,852.459,14c-44.332,0-84.932,14.016-120.674,41.653C713.75,69.606,697.408,86.674,683,106.596
	c-14.402-19.916-30.75-36.99-48.791-50.941C598.473,28.016,557.873,14,513.541,14c-59.309,0-113.865,23.748-153.621,66.867
	C320.639,123.483,299,181.701,299,244.807c0,64.951,24.205,124.406,76.172,187.113c46.488,56.092,113.303,113.032,190.676,178.969
	c26.42,22.518,56.367,48.041,87.463,75.229c8.216,7.195,18.757,11.156,29.689,11.156c10.928,0,21.475-3.961,29.678-11.145
	c31.097-27.193,61.062-52.729,87.492-75.259c77.361-65.924,144.176-122.858,190.664-178.957
	c51.967-62.7,76.166-122.155,76.166-187.112C1067,181.701,1045.361,123.483,1006.074,80.867z"/>
</svg>
