<svg height="512pt" viewBox="-33 0 512 512" width="512pt" xmlns="http://www.w3.org/2000/svg"><path d="m350.617188 32.132812c-52.566407 0-95.335938 42.769532-95.335938 95.335938 0 52.5625 42.769531 95.332031 95.335938 95.332031 52.566406 0 95.332031-42.769531 95.332031-95.332031 0-52.566406-42.765625-95.335938-95.332031-95.335938zm0 0"/><path d="m347.765625 355.914062v-103.148437c-67.796875-1.523437-122.484375-57.144531-122.484375-125.296875 0-19.984375 4.710938-38.882812 13.0625-55.664062-15.480469-4.976563-31.757812-7.539063-48.394531-7.539063-87.019531 0-157.816407 70.796875-157.816407 157.816406v133.832031c-18.65625 6.277344-32.132812 23.9375-32.132812 44.6875 0 25.988282 21.144531 47.132813 47.132812 47.132813h285.632813c25.988281 0 47.132813-21.144531 47.132813-47.132813 0-20.75-13.472657-38.410156-32.132813-44.6875zm0 0"/><path d="m189.949219 512c27.003906 0 50.886719-13.585938 65.203125-34.265625h-130.40625c14.316406 20.679687 38.199218 34.265625 65.203125 34.265625zm0 0"/><path d="m236.554688 40.082031c-3.414063-22.65625-23.011719-40.082031-46.605469-40.082031-23.605469 0-43.210938 17.445312-46.609375 40.121094 14.910156-3.820313 30.527344-5.855469 46.609375-5.855469 15.902343 0 31.523437 1.96875 46.605469 5.816406zm0 0"/></svg>